<?xml version="1.0" encoding="UTF-8"?>
<svg width="31px" height="34px" viewBox="0 0 31 34" version="1.1" xmlns="http://www.w3.org/2000/svg" xmlns:xlink="http://www.w3.org/1999/xlink">
    <!-- Generator: Sketch 43.2 (39069) - http://www.bohemiancoding.com/sketch -->
    <title>logo</title>
    <desc>Created with Sketch.</desc>
    <defs></defs>
    <g id="Page-1" stroke="none" stroke-width="1" fill="none" fill-rule="evenodd">
        <g id="plutolanding" transform="translate(-705.000000, -1173.000000)">
            <g id="footer" transform="translate(0.000000, 1144.000000)">
                <g id="logo" transform="translate(703.000000, 30.000000)">
                    <ellipse id="Oval" stroke="#F66703" cx="17.5" cy="16" rx="5.5" ry="16"></ellipse>
                    <ellipse id="Oval-Copy" stroke="#F66703" transform="translate(17.500000, 16.000000) rotate(-240.000000) translate(-17.500000, -16.000000) " cx="17.5" cy="16" rx="5.5" ry="16"></ellipse>
                    <path d="M16.592126,18 L16,18 L16,14 L19.0929134,14 C19.470868,14 19.722834,14.0914277 19.8488189,14.2742857 C19.9454073,14.4152388 19.9937008,14.6666649 19.9937008,15.0285714 L19.9937008,15.1971429 C19.9937008,15.2523812 19.9958005,15.3066664 20,15.36 C20,15.7866688 19.9202108,16.066666 19.7606299,16.2 C19.6178471,16.3180958 19.3952771,16.3771429 19.0929134,16.3771429 L16.592126,16.3771429 L16.592126,18 Z M18.8346457,14.48 L16.592126,14.48 L16.592126,15.8971429 L18.8976378,15.8971429 C19.1076126,15.8971429 19.2503933,15.859048 19.3259843,15.7828571 C19.3847772,15.7219045 19.4141732,15.6171436 19.4141732,15.4685714 C19.4141732,15.4342855 19.4120735,15.3771433 19.407874,15.2971429 C19.4036745,15.2171425 19.4015748,15.1523812 19.4015748,15.1028571 C19.4015748,14.8361891 19.3805776,14.6723813 19.3385827,14.6114286 C19.2755902,14.5238091 19.1076129,14.48 18.8346457,14.48 Z" id="P" fill="#F66703"></path>
                    <ellipse id="Oval-Copy-2" stroke="#F66703" transform="translate(17.500000, 16.000000) rotate(-120.000000) translate(-17.500000, -16.000000) " cx="17.5" cy="16" rx="5.5" ry="16"></ellipse>
                </g>
            </g>
        </g>
    </g>
</svg>